<svg xmlns="http://www.w3.org/2000/svg" width="120" height="90" viewBox="130 110 150 95" version="1.1">
	<path d="M 244.109 119.107 C 237.843 121.220, 232.471 123.195, 232.171 123.496 C 231.871 123.796, 233.035 125.270, 234.759 126.771 L 237.892 129.500 222.696 143.723 C 193.635 170.924, 185.430 176.500, 174.500 176.479 C 163.749 176.459, 155.500 169.934, 155.500 161.449 C 155.500 157.990, 156.084 156.462, 158.220 154.326 C 159.716 152.830, 161.179 151.846, 161.472 152.139 C 161.765 152.432, 161.086 155.333, 159.964 158.586 C 157.975 164.345, 158.011 169, 160.044 169 C 161.172 169, 168.302 153.969, 167.537 153.204 C 167.268 152.935, 166.298 153.338, 165.380 154.100 C 163.878 155.347, 163.787 155.236, 164.467 152.992 C 166.574 146.042, 170 141.439, 170 145.559 C 170 146.416, 170.450 146.840, 171 146.500 C 171.550 146.160, 172 144.784, 172 143.441 C 172 139.842, 168.357 140.203, 166.203 144.016 C 165.088 145.991, 163.269 147.368, 160.935 148.005 C 154.859 149.663, 151 155.191, 151 162.238 C 151 168.540, 155.192 174.697, 162.073 178.500 C 166.772 181.097, 168.507 181.496, 175 181.469 C 187.940 181.415, 197.031 175.838, 224.402 151.162 C 232.737 143.648, 240.547 136.651, 241.757 135.614 C 243.940 133.743, 243.988 133.757, 247.982 137.364 C 250.195 139.364, 252.369 141, 252.812 141 C 253.695 141, 256.834 115.993, 256.009 115.542 C 255.729 115.389, 250.374 116.993, 244.109 119.107 M 183.358 125.904 C 179.021 127.007, 173.524 130.552, 171.603 133.482 C 169.228 137.109, 169.603 137.291, 173.766 134.536 C 178.647 131.306, 182.947 130.497, 187.411 131.971 C 192.464 133.638, 196.240 137.797, 201.558 147.554 C 204.090 152.199, 206.484 156, 206.878 156 C 207.272 156, 209.307 154.246, 211.400 152.103 L 215.205 148.206 212.419 143.353 C 204.167 128.980, 194.373 123.100, 183.358 125.904 M 183.726 140.250 C 182.236 141.375, 178.380 150.319, 171.470 168.676 L 169.053 175.098 174.776 174.799 L 180.500 174.500 184 165.763 C 185.925 160.957, 187.767 157.020, 188.093 157.013 C 188.419 157.006, 189.727 159.025, 191 161.500 C 192.273 163.975, 193.806 165.982, 194.407 165.959 C 195.008 165.937, 197.075 164.569, 199 162.918 L 202.500 159.918 198 151.237 C 195.525 146.463, 192.713 141.756, 191.750 140.778 C 189.710 138.706, 186.088 138.467, 183.726 140.250 M 167.454 149.074 C 167.089 149.665, 167.776 151.197, 168.981 152.480 C 171.395 155.049, 170.948 156.927, 167.093 160.416 C 165.942 161.458, 165 162.915, 165 163.655 C 165 165.983, 167.725 165.125, 171.429 161.632 C 175.724 157.581, 176.083 153.992, 172.545 150.455 C 169.876 147.785, 168.484 147.408, 167.454 149.074 M 237.500 154.572 C 230.473 157.087, 229.176 158.163, 226.960 163.315 L 224.789 168.362 222.144 163.685 C 220.690 161.113, 219.275 159.023, 219 159.042 C 218.725 159.060, 216.733 160.588, 214.573 162.436 L 210.646 165.797 214.422 173.149 C 216.499 177.192, 219.304 181.512, 220.655 182.750 C 223.590 185.438, 228.086 185.672, 230.263 183.250 C 232.505 180.755, 243.512 152.940, 242.205 153.070 C 241.817 153.109, 239.700 153.785, 237.500 154.572 M 146.387 168.911 C 141.214 172.057, 138 176.719, 138 181.077 C 138 183.235, 138.450 185, 139 185 C 139.550 185, 140 184.121, 140 183.047 C 140 179.497, 142.070 176.464, 146.542 173.463 C 150.761 170.631, 151.956 168.709, 150.179 167.611 C 149.728 167.332, 148.021 167.917, 146.387 168.911 M 204.090 171.073 C 202.765 172.177, 200.967 173.479, 200.096 173.966 C 198.700 174.747, 198.851 175.546, 201.364 180.669 C 207.483 193.145, 214.407 198.338, 224.910 198.328 C 231.479 198.322, 235.476 196.499, 239.854 191.514 C 244.043 186.742, 245.974 181.849, 246.553 174.538 L 247.030 168.500 245.204 174.576 C 241.747 186.079, 236.098 192, 228.582 192 C 221.217 192, 216.441 187.540, 210.566 175.175 C 208.953 171.779, 207.378 169.015, 207.066 169.033 C 206.755 169.052, 205.416 169.969, 204.090 171.073 M 152.956 177.577 C 146.988 193.076, 144.057 201.390, 144.431 201.764 C 144.677 202.010, 147.640 196.702, 151.016 189.968 C 156.535 178.959, 156.999 177.570, 155.618 176.189 C 154.237 174.808, 153.969 174.948, 152.956 177.577 M 164.479 185.374 C 163.755 187.093, 162.233 190.659, 161.097 193.297 L 159.031 198.095 165.111 197.797 L 171.192 197.500 173.596 191.580 C 174.918 188.324, 176 185.346, 176 184.963 C 176 184.579, 173.704 183.811, 170.897 183.256 L 165.795 182.247 164.479 185.374" stroke="none" fill="currentColor" fill-rule="evenodd"/>
</svg>
