<svg version="1.1" id="Layer_1" xmlns="http://www.w3.org/2000/svg" xmlns:xlink="http://www.w3.org/1999/xlink" x="0px" y="0px"
	 width="100%" viewBox="0 0 1024 752" enable-background="new 0 0 1024 752" xml:space="preserve">
<path fill="currentColor" opacity="1.000000" stroke="none" 
	d="
M825.562378,62.478760 
	C885.592285,47.281700 945.224243,32.187233 1004.856140,17.092762 
	C1005.268799,17.496946 1005.681458,17.901133 1006.094116,18.305317 
	C982.924927,97.248245 956.203857,175.098663 933.442566,255.054581 
	C929.069641,251.275024 927.854492,247.152527 925.897339,243.617279 
	C916.539612,226.713821 907.439941,209.667374 898.270325,192.660004 
	C895.140686,186.855270 894.239746,186.606171 888.988953,190.778961 
	C838.127380,231.197678 787.316589,271.680389 736.416199,312.050201 
	C707.573364,334.925842 678.488464,357.496979 649.698547,380.438416 
	C618.432617,405.352875 587.632996,430.857910 556.160278,455.505554 
	C530.070190,475.937805 503.855927,496.255646 475.593536,513.737549 
	C447.752136,530.959045 418.885803,546.156128 388.193939,557.571045 
	C364.019531,566.562134 338.989319,572.220276 313.033600,571.936890 
	C271.223999,571.480530 232.037964,561.881348 196.535065,538.667847 
	C159.916489,514.724915 138.660980,481.370972 133.204193,438.148346 
	C126.529350,385.277435 154.215912,347.130524 195.235245,328.891907 
	C204.254700,324.881561 213.930313,322.715179 223.928421,323.345673 
	C227.095551,323.545410 228.507706,321.972839 229.737701,319.675140 
	C234.375824,311.010986 238.936661,302.304901 243.638748,293.675751 
	C245.707397,289.879364 247.714920,285.977600 250.322128,282.559998 
	C258.850250,271.381134 277.875702,271.883362 284.713684,283.262390 
	C287.358521,287.663666 287.774414,292.269745 286.578918,297.209320 
	C284.864502,304.292786 281.271210,310.469208 277.623047,316.642029 
	C276.485413,318.566956 274.981171,319.627472 272.671295,318.972748 
	C270.049805,318.229675 270.339630,316.306122 270.515015,314.169678 
	C270.772858,311.029480 271.049408,307.800446 270.604675,304.711945 
	C269.706451,298.474243 264.296875,296.311035 259.078247,299.898987 
	C256.441254,301.711975 254.190811,304.020782 252.718094,306.855804 
	C242.649948,326.237335 232.873596,345.743286 229.553604,367.694275 
	C229.255310,369.666565 229.095001,371.668396 229.016220,373.662262 
	C228.957993,375.136200 228.811920,376.872253 230.572083,377.515533 
	C232.238663,378.124573 233.531830,377.043701 234.401382,375.801392 
	C237.648071,371.162933 240.700668,366.387054 244.002121,361.789124 
	C245.536835,359.651733 246.521042,355.806305 250.161484,357.281860 
	C253.942322,358.814270 255.963547,362.039459 255.557297,366.488220 
	C255.197540,370.428162 253.580887,373.952484 251.813324,377.284821 
	C235.087067,408.818237 223.262436,442.601227 207.107193,474.388947 
	C205.466248,477.617706 204.185242,481.090576 201.560852,483.956268 
	C200.814880,483.658386 200.009567,483.595856 199.681931,483.167755 
	C193.198059,474.695343 187.099365,465.965210 182.760849,456.157501 
	C181.031448,452.247955 181.796356,448.335938 183.275909,444.489227 
	C189.433014,428.481140 195.717728,412.519775 201.659119,396.431793 
	C206.676086,382.846924 210.697189,368.884918 217.402328,355.954590 
	C217.914413,354.967072 218.363281,353.805511 217.770508,352.519440 
	C215.891174,350.966797 213.781097,351.544373 211.662170,352.026184 
	C195.127243,355.785980 183.339249,366.481598 174.814545,380.078674 
	C157.748199,407.299927 155.061905,435.401886 171.542969,464.541809 
	C192.099594,500.887665 222.758713,523.711243 262.681122,533.956482 
	C286.349121,540.030396 310.540009,538.893555 334.640472,535.354431 
	C355.477600,532.294434 373.862885,522.963867 392.441071,513.901489 
	C423.672119,498.667084 451.475525,478.193359 478.366516,456.621643 
	C499.395844,439.752197 518.705933,420.778809 538.286987,402.203156 
	C612.278931,332.010315 683.170959,258.686310 755.590210,186.904907 
	C777.004028,165.679657 799.022034,145.053131 819.604675,122.993729 
	C820.059387,122.506393 820.524231,122.028221 820.971252,121.533928 
	C825.663025,116.346046 825.652222,116.082436 819.576843,112.651939 
	C802.313538,102.904144 784.982422,93.282654 767.121338,84.651535 
	C764.479309,83.374817 761.949707,81.865524 759.368164,80.463821 
	C759.364075,79.905678 759.359985,79.347542 759.355896,78.789398 
	C781.292053,73.386711 803.228210,67.984032 825.562378,62.478760 
z"/>
<path fill="currentColor" opacity="1.000000" stroke="none" 
	d="
M490.376892,376.661438 
	C495.869049,387.364563 501.441620,397.607910 506.048157,408.342133 
	C507.330505,411.330231 507.348663,413.551392 504.837280,415.899017 
	C488.994110,430.709167 472.523773,444.749298 454.421936,456.748322 
	C447.904846,461.068237 446.977783,460.883453 442.516388,454.131256 
	C432.493408,438.961700 424.593231,422.577057 415.892914,406.652130 
	C411.980957,399.491760 408.263519,392.225311 404.383759,385.046997 
	C403.693909,383.770630 402.872925,382.238190 401.031799,382.523773 
	C399.264374,382.797913 398.826965,384.394684 398.405548,385.832916 
	C388.037170,421.218750 372.644684,454.735779 359.953979,489.257324 
	C358.863190,492.224487 357.581787,495.159210 356.867218,498.220642 
	C353.498505,512.653076 344.132294,520.478638 329.860687,522.604126 
	C310.481079,525.490295 291.072052,526.062561 271.786835,521.769592 
	C266.341919,520.557495 266.118164,519.789429 268.250275,514.561951 
	C286.050934,470.918610 302.665405,426.811890 319.786957,382.902924 
	C330.553741,355.291046 341.230255,327.648590 351.752747,299.943359 
	C355.435272,290.247375 360.552612,281.220551 367.962555,273.768463 
	C379.018921,262.649261 392.446533,261.235718 406.889374,264.773926 
	C421.609924,268.380219 432.948792,277.047272 442.026581,288.907898 
	C448.420898,297.262360 454.000092,306.150360 458.836578,315.488373 
	C469.330780,335.749847 479.759308,356.045288 490.376892,376.661438 
z"/>
<path fill="currentColor" opacity="1.000000" stroke="none" 
	d="
M612.006958,427.992310 
	C617.489868,423.352173 622.657471,418.887451 627.918274,414.535522 
	C633.198730,410.167358 633.638123,410.195160 637.073547,416.363983 
	C646.712830,433.672882 656.232361,451.048492 665.795044,468.399994 
	C666.116333,468.982880 666.374451,469.600555 666.696106,470.183167 
	C667.752136,472.095856 668.789917,474.247955 671.341248,474.183716 
	C673.835876,474.120880 674.302307,471.693268 675.068726,469.967438 
	C680.810913,457.036591 687.084595,444.294556 691.983887,431.046692 
	C701.549011,405.182220 719.622803,389.110260 745.542908,380.652710 
	C763.934448,374.651733 782.757874,370.402069 801.391418,365.381744 
	C801.837402,365.261597 802.356689,365.413605 802.814819,365.437317 
	C804.134277,366.952972 803.176453,368.318848 802.649231,369.656128 
	C777.740601,432.835693 752.827026,496.013367 727.891968,559.182495 
	C724.941650,566.656677 721.150330,573.748535 716.223083,580.057678 
	C705.372192,593.951721 690.343445,597.824768 673.801636,595.434998 
	C655.802246,592.834595 642.888611,581.494446 631.601074,568.059631 
	C624.054749,559.077759 618.203369,549.031311 612.709778,538.716614 
	C600.186218,515.202332 587.591248,491.724976 574.823608,468.342773 
	C572.585571,464.244080 572.866760,461.585205 576.516602,458.524139 
	C588.381958,448.572876 600.011902,438.341064 612.006958,427.992310 
z"/>
<path fill="currentColor" opacity="1.000000" stroke="none" 
	d="
M820.741394,579.647583 
	C809.716736,615.482971 790.600281,645.289185 759.895935,666.778870 
	C731.930176,686.351807 700.963074,696.637329 666.509705,695.201233 
	C634.216736,693.855042 605.719971,682.319946 579.327026,664.066284 
	C552.076904,645.219727 532.570618,619.667236 515.216492,592.245483 
	C503.568298,573.839722 491.886505,555.348633 484.489563,534.608459 
	C481.977844,527.565979 481.989258,527.600220 488.031860,523.300720 
	C503.775574,512.098572 519.377563,500.697357 535.041138,489.382385 
	C536.931458,488.016846 538.827271,486.656128 540.763916,485.357819 
	C545.803772,481.979065 546.315857,482.056641 548.906189,487.349670 
	C554.688660,499.165466 560.300415,511.065155 566.129089,522.857849 
	C578.526733,547.941101 590.381042,573.342773 606.880737,596.134644 
	C621.255066,615.990601 638.347961,632.856873 661.139465,642.872253 
	C689.767029,655.452148 717.608948,653.672546 745.010559,638.388672 
	C778.145935,619.906433 797.179138,590.184265 811.363220,556.606445 
	C819.811462,536.606934 825.341858,515.680786 828.226379,494.100006 
	C829.092957,487.616608 828.529419,481.122345 828.795471,474.639008 
	C828.866760,472.901154 828.211548,471.003510 829.620483,469.424072 
	C836.632690,479.526794 831.101868,548.779175 820.741394,579.647583 
z"/>
<path fill="currentColor" opacity="1.000000" stroke="none" 
	d="
M277.432129,231.491943 
	C305.225311,187.323151 345.477661,164.268463 396.625427,160.861893 
	C453.734283,157.058319 498.826172,181.978287 536.038452,223.091705 
	C555.538330,244.635880 568.551575,270.550507 582.064392,296.023285 
	C586.279297,303.968567 590.384644,311.991547 595.042786,319.674286 
	C597.635498,323.950592 596.898621,327.018127 593.645935,330.194427 
	C586.136353,337.527771 578.756226,344.995575 571.165039,352.242798 
	C562.249939,360.753967 553.170471,369.093048 544.155701,377.499756 
	C537.738464,383.484131 537.514893,383.501770 532.778442,376.340485 
	C520.265747,357.421906 509.872284,337.266174 498.622711,317.610748 
	C487.954926,298.971832 479.761444,278.940216 467.380951,261.275879 
	C453.070740,240.858368 436.608185,222.389709 413.372040,212.027756 
	C377.201813,195.897995 341.900146,199.540970 308.217621,219.536255 
	C293.982941,227.986526 281.580292,238.930786 270.293274,251.076141 
	C269.323242,252.119934 268.649536,253.680420 266.025421,253.275009 
	C269.032379,245.575623 273.376465,238.806137 277.432129,231.491943 
z"/>
<path fill="currentColor" opacity="1.000000" stroke="none" 
	d="
M199.317871,693.254883 
	C194.514633,693.545044 193.754349,691.984070 195.377731,687.912170 
	C209.053268,653.609863 224.152832,619.886169 237.027725,585.257935 
	C240.159760,576.834045 240.512878,576.958984 249.057785,578.975708 
	C267.554810,583.341370 286.310974,586.023621 305.300110,586.920105 
	C316.685730,587.457581 318.389648,589.358276 314.480713,600.274963 
	C309.212128,614.988708 303.198334,629.435181 297.531525,644.006958 
	C291.799927,658.745239 285.261261,673.125610 278.429718,687.379333 
	C275.903748,692.649780 271.122955,693.220154 266.190155,693.232910 
	C245.549835,693.286438 224.909286,693.245300 204.268814,693.240051 
	C202.770767,693.239624 201.272720,693.247620 199.317871,693.254883 
z"/>
<path fill="currentColor" opacity="1.000000" stroke="none" 
	d="
M232.802078,447.470642 
	C234.731720,441.773041 236.941757,436.513641 238.271439,431.040405 
	C240.006378,423.898895 244.312820,419.022034 250.112549,415.008789 
	C256.683441,410.461975 263.193085,405.852234 268.263458,399.494965 
	C282.128998,382.110291 278.652344,363.576904 259.340668,352.458466 
	C258.907776,352.209229 258.473053,351.962799 258.033203,351.726227 
	C248.264816,346.472198 247.107483,337.271729 255.091431,329.235352 
	C258.290649,326.015167 261.921051,326.384216 265.766937,327.355621 
	C287.241364,332.779846 302.019501,350.325958 304.275421,373.155334 
	C306.024475,390.855713 299.118530,405.585754 288.574615,419.131592 
	C275.198822,436.315613 256.645844,444.708893 236.360168,450.219971 
	C234.403885,450.751434 232.056885,451.436859 232.802078,447.470642 
z"/>
<path fill="currentColor" opacity="1.000000" stroke="none" 
	d="
M142.572693,552.650635 
	C146.248917,542.768616 149.944946,533.299072 152.588150,523.479187 
	C153.671890,519.453003 155.494049,518.946655 158.424408,521.761658 
	C160.947174,524.185120 163.491776,526.588135 165.948761,529.077209 
	C174.207474,537.443909 175.366440,542.540710 170.216766,553.273987 
	C143.350006,609.271545 116.472801,665.268127 85.391708,719.113281 
	C80.979942,726.756287 76.805771,734.536194 72.432030,742.201599 
	C71.523331,743.794128 71.058258,745.945068 68.225685,746.583069 
	C94.804947,682.426208 118.314278,617.603271 142.572693,552.650635 
z"/>
<path fill="currentColor" opacity="1.000000" stroke="none" 
	d="
M38.279800,584.456238 
	C31.244238,559.236572 39.312950,537.720642 53.563988,517.961121 
	C70.711357,494.185822 94.984512,479.328461 120.472404,466.156891 
	C124.089432,464.287689 126.006691,465.503204 127.365547,468.960327 
	C129.131439,473.453156 130.912781,477.952911 132.985809,482.307678 
	C134.551590,485.596863 133.569641,487.424011 130.620361,489.186523 
	C118.476517,496.444000 106.229454,503.558289 94.396347,511.299988 
	C70.940475,526.645752 55.610519,547.921265 49.220669,575.386108 
	C47.395874,583.229370 46.570595,591.120605 48.037037,599.160522 
	C48.376190,601.019897 49.053364,603.037964 47.248402,606.520447 
	C44.024715,598.597717 41.224087,591.714661 38.279800,584.456238 
z"/>
</svg>