<svg xmlns="http://www.w3.org/2000/svg" viewBox="0 0 408 408" width="32" height="32">
  <rect width="408" height="408" rx="60" fill="#0C2E1E"/>
  <path d="M 244.109 119.107 C 237.843 121.220, 232.471 123.195, 232.171 123.496 C 231.871 123.796, 233.035 125.270, 234.759 126.771 L 237.892 129.500 222.696 143.723 C 193.635 170.924, 185.430 176.500, 174.500 176.479 C 163.749 176.459, 155.500 169.934, 155.500 161.449 C 155.500 157.990, 156.084 156.462, 158.220 154.326 C 159.716 152.830, 161.179 151.846, 161.472 152.139 C 161.765 152.432, 161.086 155.333, 159.964 158.586 C 157.975 164.345, 158.011 169, 160.044 169 C 161.172 169, 168.302 153.969, 167.537 153.204 C 167.268 152.935, 166.298 153.338, 165.380 154.100 C 163.878 155.347, 163.787 155.236, 164.467 152.992 C 166.574 146.042, 170 141.439, 170 145.559 C 170 146.416, 170.450 146.840, 171 146.500 C 171.550 146.160, 172 144.784, 172 143.441 C 172 139.842, 168.357 140.203, 166.203 144.016 C 165.088 145.991, 163.269 147.368, 160.935 148.005 C 154.859 149.663, 151 155.191, 151 162.238 C 151 168.540, 155.192 174.697, 162.073 178.500 C 166.772 181.097, 168.507 181.496, 175 181.469 C 187.940 181.415, 197.031 175.838, 224.402 151.162 C 232.737 143.648, 240.547 136.651, 241.757 135.614 C 243.940 133.743, 243.988 133.757, 247.982 137.364 C 250.195 139.364, 252.369 141, 252.812 141 C 253.695 141, 256.834 115.993, 256.009 115.542 C 255.729 115.389, 250.374 116.993, 244.109 119.107 M 183.358 125.904 C 179.021 127.007, 173.524 130.552, 171.603 133.482 C 169.228 137.109, 169.603 137.291, 173.766 134.536 C 178.647 131.306, 182.947 130.497, 187.411 131.971 C 192.464 133.638, 196.240 137.797, 201.558 147.554 C 204.090 152.199, 206.484 156, 206.878 156 C 207.272 156, 209.307 154.246, 211.400 152.103 L 215.205 148.206 212.419 143.353 C 204.167 128.980, 194.373 123.100, 183.358 125.904 M 183.726 140.250 C 182.236 141.375, 178.380 150.319, 171.470 168.676 L 169.053 175.098 174.776 174.799 L 180.500 174.500 184 165.763 C 185.925 160.957, 187.767 157.020, 188.093 157.013 C 188.419 157.006, 189.727 159.025, 191 161.500 C 192.273 163.975, 193.806 165.982, 194.407 165.959 C 195.008 165.937, 197.075 164.569, 199 162.918 L 202.500 159.918 198 151.237 C 195.525 146.463, 192.713 141.756, 191.750 140.778 C 189.710 138.706, 186.088 138.467, 183.726 140.250 M 167.454 149.074 C 167.089 149.665, 167.776 151.197, 168.981 152.480 C 171.395 155.049, 170.948 156.927, 167.093 160.416 C 165.942 161.458, 165 162.915, 165 163.655 C 165 165.983, 167.725 165.125, 171.429 161.632 C 175.724 157.581, 176.083 153.992, 172.545 150.455 C 169.876 147.785, 168.484 147.408, 167.454 149.074 M 237.500 154.572 C 230.473 157.087, 229.176 158.163, 226.960 163.315 L 224.789 168.362 222.144 163.685 C 220.690 161.113, 219.275 159.023, 219 159.042 C 218.725 159.060, 216.733 160.588, 214.573 162.436 L 210.646 165.797 214.422 173.149 C 216.499 177.192, 219.304 181.512, 220.655 182.750 C 223.590 185.438, 228.086 185.672, 230.263 183.250 C 232.505 180.755, 243.512 152.940, 242.205 153.070 C 241.817 153.109, 239.700 153.785, 237.500 154.572 M 146.387 168.911 C 141.214 172.057, 138 176.719, 138 181.077 C 138 183.235, 138.450 185, 139 185 C 139.550 185, 140 184.121, 140 183.047 C 140 179.497, 142.070 176.464, 146.542 173.463 C 150.761 170.631, 151.956 168.709, 150.179 167.611 C 149.728 167.332, 148.021 167.917, 146.387 168.911 M 204.090 171.073 C 202.765 172.177, 200.967 173.479, 200.096 173.966 C 198.700 174.747, 198.851 175.546, 201.364 180.669 C 207.483 193.145, 214.407 198.338, 224.910 198.328 C 231.479 198.322, 235.476 196.499, 239.854 191.514 C 244.043 186.742, 245.974 181.849, 246.553 174.538 L 247.030 168.500 245.204 174.576 C 241.747 186.079, 236.098 192, 228.582 192 C 221.217 192, 216.441 187.540, 210.566 175.175 C 208.953 171.779, 207.378 169.015, 207.066 169.033 C 206.755 169.052, 205.416 169.969, 204.090 171.073 M 152.956 177.577 C 146.988 193.076, 144.057 201.390, 144.431 201.764 C 144.677 202.010, 147.640 196.702, 151.016 189.968 C 156.535 178.959, 156.999 177.570, 155.618 176.189 C 154.237 174.808, 153.969 174.948, 152.956 177.577 M 164.479 185.374 C 163.755 187.093, 162.233 190.659, 161.097 193.297 L 159.031 198.095 165.111 197.797 L 171.192 197.500 173.596 191.580 C 174.918 188.324, 176 185.346, 176 184.963 C 176 184.579, 173.704 183.811, 170.897 183.256 L 165.795 182.247 164.479 185.374 M 106 230 L 106 242 108.456 242 C 110.812 242, 110.924 241.702, 111.206 234.750 L 111.500 227.500 117.293 234.750 C 121.656 240.212, 123.691 242, 125.543 242 L 128 242 128 229.934 L 128 217.867 125.250 218.184 C 122.553 218.494, 122.500 218.630, 122.500 225.250 C 122.500 228.963, 122.265 232, 121.979 232 C 121.692 232, 119.001 228.850, 116 225 C 112.094 219.989, 109.897 218, 108.271 218 C 106.036 218, 106 218.189, 106 230 M 137.893 219.497 C 133.990 221.618, 132 225.356, 132 230.565 C 132 234.503, 132.511 235.711, 135.400 238.600 C 138.446 241.646, 139.375 242, 144.323 242 C 150.937 242, 155.366 238.956, 156.915 233.345 C 159.798 222.904, 147.755 214.137, 137.893 219.497 M 161.667 218.667 C 161.300 219.033, 161 224.433, 161 230.667 L 161 242 164 242 C 166.762 242, 167 241.722, 167 238.500 C 167 235.535, 167.344 235.001, 169.250 235.007 C 170.695 235.011, 172.351 236.263, 173.879 238.507 C 175.668 241.134, 176.969 242, 179.129 242 C 180.708 242, 182 241.862, 182 241.694 C 182 241.526, 180.879 239.869, 179.508 238.011 C 177.030 234.652, 177.027 234.623, 178.996 232.789 C 183.633 228.469, 182.052 221.381, 175.988 219.306 C 172.203 218.011, 162.745 217.589, 161.667 218.667 M 183.667 218.667 C 183.300 219.033, 183 220.158, 183 221.167 C 183 222.595, 183.773 223, 186.500 223 L 190 223 190 232.500 L 190 242 193 242 L 196 242 196 232.500 L 196 223 199.500 223 C 202.567 223, 203 222.690, 203 220.500 C 203 218.012, 202.956 218, 193.667 218 C 188.533 218, 184.033 218.300, 183.667 218.667 M 206.709 218.624 C 206.319 219.014, 206 224.433, 206 230.667 L 206 242 209 242 C 211.933 242, 212 241.889, 212 237 L 212 232 217 232 L 222 232 222 237 C 222 241.901, 222.060 242, 225.032 242 L 228.063 242 227.782 230.250 L 227.500 218.500 225 218.500 C 222.727 218.500, 222.472 218.931, 222.195 223.250 L 221.890 228 217 228 L 212.110 228 211.805 223.250 C 211.555 219.352, 211.134 218.448, 209.459 218.208 C 208.336 218.047, 207.099 218.235, 206.709 218.624 M 233.704 218.630 C 233.317 219.017, 233 224.450, 233 230.704 L 233 242.075 242.239 241.788 C 250.107 241.543, 251.527 241.240, 251.812 239.750 C 252.103 238.227, 251.294 238, 245.573 238 L 239 238 239 235 C 239 232.030, 239.056 232, 244.500 232 C 249.333 232, 250 231.758, 250 230 C 250 228.242, 249.333 228, 244.500 228 C 239.300 228, 239 227.864, 239 225.500 C 239 223.108, 239.262 223, 245.070 223 C 250.792 223, 251.121 222.871, 250.820 220.750 C 250.522 218.658, 249.935 218.480, 242.454 218.213 C 238.028 218.055, 234.091 218.242, 233.704 218.630 M 255.432 219.318 C 255.154 220.042, 255.055 225.330, 255.213 231.068 L 255.500 241.500 258.250 241.816 C 260.795 242.109, 261 241.867, 261 238.566 C 261 235.461, 261.313 235, 263.418 235 C 265.104 235, 266.493 236.061, 268 238.500 C 269.682 241.222, 270.820 242, 273.117 242 C 276.253 242, 276.202 241.250, 272.745 236.624 C 271.504 234.964, 271.610 234.481, 273.671 232.420 C 278.211 227.880, 275.887 220.896, 269.221 219.044 C 263.871 217.559, 256.047 217.714, 255.432 219.318 M 280.667 218.667 C 280.300 219.033, 280 224.433, 280 230.667 L 280 242 283 242 L 286 242 286 234.850 L 286 227.700 291.657 234.850 C 295.789 240.073, 297.946 242, 299.657 242 C 301.984 242, 302 241.919, 302 230 L 302 218 299.500 218 C 297.071 218, 297 218.200, 297 225 C 297 228.850, 296.663 231.982, 296.250 231.961 C 295.837 231.939, 293.071 228.789, 290.103 224.961 C 285.196 218.632, 282.500 216.834, 280.667 218.667 M 139.773 224.750 C 135.994 229.054, 137.040 234.946, 141.946 236.978 C 149.447 240.085, 155.275 230.418, 149.427 224.570 C 147.316 222.459, 141.693 222.564, 139.773 224.750 M 167 227 C 167 230.859, 167.117 231, 170.300 231 C 174.135 231, 176 229.497, 176 226.407 C 176 223.966, 174.275 223, 169.918 223 C 167.180 223, 167 223.247, 167 227 M 261 227 C 261 230.859, 261.117 231, 264.300 231 C 268.135 231, 270 229.497, 270 226.407 C 270 223.966, 268.275 223, 263.918 223 C 261.180 223, 261 223.247, 261 227 M 173 258.500 C 173 262.990, 173.008 263, 176.559 263 C 178.828 263, 179.879 262.613, 179.458 261.932 C 179.095 261.344, 178.183 261.100, 177.431 261.388 C 176.679 261.677, 175.798 261.482, 175.473 260.956 C 175.148 260.430, 175.809 260, 176.941 260 C 178.073 260, 179 259.550, 179 259 C 179 258.450, 178.100 258, 177 258 C 175.900 258, 175 257.550, 175 257 C 175 256.450, 176.152 256, 177.559 256 C 179.010 256, 179.851 255.567, 179.500 255 C 179.160 254.450, 177.559 254, 175.941 254 C 173.122 254, 173 254.187, 173 258.500 M 181.910 255.608 C 180.776 256.975, 180.862 257.426, 182.479 258.608 C 183.526 259.374, 184.746 260, 185.191 260 C 185.636 260, 186 260.499, 186 261.108 C 186 261.791, 185.040 261.976, 183.500 261.589 C 181.987 261.210, 181 261.389, 181 262.044 C 181 262.663, 182.390 262.992, 184.242 262.813 C 188.568 262.395, 189.203 259.454, 185.323 257.810 L 182.500 256.614 185.267 256.239 C 186.789 256.033, 187.775 255.445, 187.458 254.932 C 186.547 253.459, 183.373 253.846, 181.910 255.608 M 189 255 C 189 255.550, 189.675 256, 190.500 256 C 191.548 256, 192 257.056, 192 259.500 C 192 261.425, 192.450 263, 193 263 C 193.550 263, 194 261.425, 194 259.500 C 194 256.997, 194.444 256, 195.559 256 C 196.416 256, 196.840 255.550, 196.500 255 C 196.160 254.450, 194.334 254, 192.441 254 C 190.548 254, 189 254.450, 189 255 M 204.500 255 C 204.160 255.550, 204.359 256, 204.941 256 C 205.523 256, 206 257.575, 206 259.500 C 206 261.425, 206.450 263, 207 263 C 207.550 263, 208 260.975, 208 258.500 C 208 255.249, 207.600 254, 206.559 254 C 205.766 254, 204.840 254.450, 204.500 255 M 211.011 255.487 C 209.342 257.498, 210.460 260, 213.028 260 C 214.256 260, 214.846 260.441, 214.458 261.068 C 214.095 261.656, 213.168 261.895, 212.399 261.600 C 211.629 261.304, 211 261.529, 211 262.098 C 211 262.667, 212.238 262.990, 213.750 262.816 C 215.927 262.566, 216.567 261.914, 216.822 259.690 C 217.366 254.951, 213.672 252.280, 211.011 255.487 M 220.328 254.776 C 219.683 255.187, 219.233 257.092, 219.328 259.011 C 219.484 262.183, 219.773 262.500, 222.500 262.500 C 225.138 262.500, 225.515 262.138, 225.627 259.500 C 225.820 254.947, 223.421 252.809, 220.328 254.776 M 227.667 254.667 C 226.209 256.125, 227.133 257.005, 229.500 256.411 C 232.418 255.678, 232.526 256.082, 230.474 260.050 C 229.635 261.672, 229.399 263, 229.949 263 C 231.143 263, 234 257.746, 234 255.550 C 234 253.974, 229.049 253.284, 227.667 254.667 M 212 257 C 212 257.550, 212.675 258, 213.500 258 C 214.325 258, 215 257.550, 215 257 C 215 256.450, 214.325 256, 213.500 256 C 212.675 256, 212 256.450, 212 257 M 221 257 C 221 257.550, 221.675 258, 222.500 258 C 223.325 258, 224 257.550, 224 257 C 224 256.450, 223.325 256, 222.500 256 C 221.675 256, 221 256.450, 221 257 M 221.639 259.694 C 220.513 260.820, 220.954 262, 222.500 262 C 223.325 262, 224 261.577, 224 261.059 C 224 259.798, 222.438 258.895, 221.639 259.694 M 197.500 262 C 197.160 262.550, 197.359 263, 197.941 263 C 198.523 263, 199 262.550, 199 262 C 199 261.450, 198.802 261, 198.559 261 C 198.316 261, 197.840 261.450, 197.500 262" stroke="none" fill="#D4C9A8" fill-rule="evenodd"/>
</svg>
